<svg fill="currentColor" height="800px" width="800px" version="1.1" id="Capa_1" xmlns="http://www.w3.org/2000/svg" xmlns:xlink="http://www.w3.org/1999/xlink" 
	 viewBox="0 0 495.955 495.955" xml:space="preserve">
<path id="XMLID_71_" d="M444.312,139.828H143.532l-54.52-129.6C85.426,1.709,75.618-2.248,67.135,1.3
	c-8.501,3.583-12.498,13.381-8.929,21.884l49.068,116.644H50.964c-16.023,0-29.064,13.039-29.064,29.062v99.406
	c0,9.226,7.475,16.709,16.713,16.709h11.813v9.365H34.94c-9.595,0-17.381,7.783-17.381,17.378v31.069
	c0,9.595,7.786,17.378,17.381,17.378h15.485v99.758c0,19.881,16.122,36.002,35.995,36.002h327.457
	c19.875,0,35.996-16.121,35.996-36.002V285.005h11.814c9.239,0,16.707-7.483,16.707-16.709v-94.38
	C478.396,155.118,463.11,139.828,444.312,139.828z M156.714,417.599c-34.021,0-61.613-27.583-61.613-61.614
	c0-34.03,27.592-61.614,61.613-61.614c34.023,0,61.615,27.584,61.615,61.614C218.329,390.016,190.737,417.599,156.714,417.599z
	 M342.603,398.803c-23.641,0-42.816-19.174-42.816-42.818c0-23.645,19.176-42.815,42.816-42.815c23.645,0,42.82,19.171,42.82,42.815
	C385.423,379.629,366.247,398.803,342.603,398.803z M444.979,173.916v60.276c-6.217-10.82-17.736-18.188-31.102-18.188H183.476
	c-1.875-10.191-8.549-18.609-17.57-23.015l-8.244-19.565L444.979,173.916z M55.321,173.254l66.068,0.115l10,23.773
	c-5.709,4.724-9.791,11.284-11.191,18.862H86.421c-13.365,0-24.885,7.367-31.1,18.188V173.254z"/>
</svg>